<?xml version="1.0" ?><!DOCTYPE svg  PUBLIC '-//W3C//DTD SVG 1.1//EN'  'http://www.w3.org/Graphics/SVG/1.1/DTD/svg11.dtd'><svg enable-background="new 0 0 128 128" id="Слой_1" version="1.1" viewBox="0 0 128 128" xml:space="preserve" xmlns="http://www.w3.org/2000/svg" xmlns:xlink="http://www.w3.org/1999/xlink"><circle cx="64" cy="64" fill="#A7DCEC" r="62"/><g><path d="M64,126c17.6,0,33.4-7.3,44.7-19.1v-2.6V88.1V71.8c0-6.7-5.5-12.2-12.2-12.2H27.4   c-6.7,0-12.2-5.5-12.2-12.2v54.8C26.6,116.7,44.2,126,64,126z" fill="#DCB992"/></g><g><g><path d="M15.2,47.4v54.8c1.6,2.1,3.4,4.1,5.3,5.9l2.8-49.4C21.1,59.3,15.2,54.1,15.2,47.4z" fill="#FFFFFF"/><g><path d="M27.4,58.4c-0.7,0-1.2,0.5-1.2,1.2v53.5c0.8,0.6,1.6,1.2,2.4,1.8V59.6C28.6,58.9,28.1,58.4,27.4,58.4z" fill="#4A374F"/></g></g><g><path d="M96.5,35.2H27.4c-6.9,0-12.5,5.8-12.2,12.8c0.3,6.6,6,11.6,12.5,11.6h68.8c6.7,0,12.2,5.5,12.2,12.2V47.4    C108.7,40.7,103.3,35.2,96.5,35.2z" fill="#D8D7D8"/></g><g><path d="M96.5,35.2H27.4c-6.9,0-12.5,5.8-12.2,12.8c0.3,6.6,6,11.6,12.5,11.6h68.8c6.7,0,12.2,5.5,12.2,12.2V47.4    C108.7,40.7,103.3,35.2,96.5,35.2z" fill="#A78B70"/></g><path d="M96.5,47.4l-73.2,0v11.4c1.4,0.5,2.9,0.8,4.4,0.8h68.8c1.4,0,2.8,0.3,4.1,0.7v-8.8   C100.6,49.2,98.8,47.4,96.5,47.4z" fill="#80A27A"/><path d="M111.1,104.3L111.1,104.3c1,0,1.7-0.7,1.7-1.6v-0.5C112.2,103,111.7,103.6,111.1,104.3z" fill="#FFF6E2"/><path d="M112.8,89.7c0-0.9-0.7-1.6-1.6-1.6H101c-4.3,0-8.1,3.3-8.4,7.6c-0.3,4.7,3.4,8.7,8.1,8.7h10.4   c0.6-0.7,1.2-1.4,1.7-2.1V89.7z" fill="#FFF6E2"/><g><path d="M96.5,46.2l-69.1,0c-2.9,0-5.3,2.4-5.3,5.3v7.3c0,0.5,0.3,1,0.8,1.1c1.6,0.6,3.2,0.9,4.8,0.9h68.8    c1.2,0,2.5,0.2,3.7,0.6c0.1,0,0.3,0.1,0.4,0.1c0.2,0,0.5-0.1,0.7-0.2c0.3-0.2,0.5-0.6,0.5-1v-8.8c0-1.4-0.5-2.7-1.5-3.7    C99.3,46.7,97.9,46.2,96.5,46.2z M99.4,58.7c-0.9-0.2-1.9-0.3-2.8-0.3H27.8c-1.1,0-2.1-0.2-3.2-0.5v-6.4c0-1.6,1.3-2.8,2.8-2.8    l69.1,0c1.6,0,2.8,1.3,2.8,2.8V58.7z" fill="#4A374F"/></g><g><g><path d="M96.5,34H27.4c-3.7,0-7.2,1.5-9.7,4.2c-2.6,2.7-3.9,6.2-3.7,9.9c0.3,7.2,6.4,12.8,13.7,12.8h68.8     c6.1,0,11,4.9,11,11c0,0.7,0.5,1.2,1.2,1.2c0.7,0,1.2-0.5,1.2-1.2V47.4C109.9,40,103.9,34,96.5,34z M107.5,64.1     c-2.4-3.5-6.4-5.7-11-5.7H27.8c-6.1,0-11-4.6-11.3-10.4c-0.1-3,0.9-5.9,3-8.1c2.1-2.2,4.9-3.4,7.9-3.4h69.1c6.1,0,11,4.9,11,11     V64.1z" fill="#4A374F"/></g></g><g><path d="M114,89.7c0-1.6-1.3-2.8-2.8-2.8H101c-5.1,0-9.3,3.8-9.6,8.7c-0.2,2.6,0.7,5.1,2.5,7c1.8,1.9,4.2,3,6.8,3    h9.3c1.4-1.6,2.7-3.2,4-4.9V89.7z M111.6,102.7c0,0.2-0.2,0.4-0.4,0.4h-10.4c-1.9,0-3.7-0.8-5-2.2c-1.3-1.4-2-3.3-1.9-5.2    c0.2-3.6,3.4-6.4,7.2-6.4h10.2c0.2,0,0.4,0.2,0.4,0.4V102.7z" fill="#4A374F"/></g><g><g><path d="M108.7,103.1c-0.7,0-1.2,0.5-1.2,1.2v3.9c0.8-0.8,1.7-1.7,2.4-2.5v-1.3     C109.9,103.6,109.4,103.1,108.7,103.1z" fill="#4A374F"/><path d="M16.4,55.1c2.4,3.5,6.4,5.7,11,5.7h69.1c6.1,0,11,4.9,11,11v16.3c0,0.7,0.5,1.2,1.2,1.2     c0.7,0,1.2-0.5,1.2-1.2V71.8c0-7.4-6-13.4-13.4-13.4H27.4c-6.1,0-11-4.9-11-11c0-0.7-0.5-1.2-1.2-1.2c-0.7,0-1.2,0.5-1.2,1.2     v53.2c0.8,1.1,1.6,2.1,2.4,3.1V55.1z" fill="#4A374F"/></g></g></g><g><path d="M64,127.2C29.1,127.2,0.8,98.9,0.8,64S29.1,0.8,64,0.8s63.2,28.4,63.2,63.2S98.9,127.2,64,127.2z M64,3.2   C30.5,3.2,3.2,30.5,3.2,64s27.3,60.8,60.8,60.8c33.5,0,60.8-27.3,60.8-60.8S97.5,3.2,64,3.2z" fill="#4A374F"/></g></svg>